<?xml version="1.0" standalone="no"?>
<!DOCTYPE svg PUBLIC "-//W3C//DTD SVG 20010904//EN"
 "http://www.w3.org/TR/2001/REC-SVG-20010904/DTD/svg10.dtd">
<svg version="1.0" xmlns="http://www.w3.org/2000/svg"
 width="897.000000pt" height="818.000000pt" viewBox="0 0 897.000000 818.000000"
 preserveAspectRatio="xMidYMid meet">

<g transform="translate(0.000000,818.000000) scale(0.100000,-0.100000)"
fill="#000000" stroke="none">
<path d="M4225 7674 c-534 -34 -1000 -156 -1444 -379 -350 -175 -623 -370
-910 -650 -310 -303 -521 -589 -710 -966 -232 -461 -352 -917 -381 -1439 -69
-1273 551 -2497 1623 -3204 502 -331 1032 -519 1637 -581 197 -21 624 -16 808
9 688 92 1293 353 1842 794 126 102 405 382 507 510 465 582 721 1202 799
1935 20 188 14 639 -10 812 -98 693 -346 1274 -774 1812 -107 135 -404 433
-538 539 -134 108 -285 213 -413 291 -133 81 -409 217 -564 277 -269 105 -622
190 -914 220 -156 16 -451 27 -558 20z m385 -154 c618 -44 1166 -226 1674
-557 893 -582 1470 -1537 1566 -2593 13 -147 13 -483 0 -625 -58 -620 -278
-1208 -639 -1710 -515 -718 -1290 -1216 -2151 -1384 -252 -49 -330 -56 -665
-56 -334 0 -412 7 -665 56 -873 169 -1662 683 -2176 1416 -344 491 -555 1059
-615 1658 -16 156 -16 517 0 670 105 1005 628 1905 1451 2492 639 455 1451
687 2220 633z"/>
<path d="M4060 7286 c0 -9 12 -16 33 -18 l32 -3 3 -210 c1 -115 0 -220 -3
-232 -4 -18 -13 -23 -36 -23 -22 0 -30 -4 -27 -16 2 -8 6 -15 11 -15 4 1 43 1
87 1 64 0 80 3 80 15 0 9 -9 15 -25 15 -14 0 -28 6 -31 13 -2 7 -3 91 -2 186
l3 174 99 -119 c237 -283 247 -294 283 -294 l33 0 2 252 3 253 29 5 c16 3 31
11 34 18 3 9 -20 12 -92 12 -79 0 -96 -3 -96 -15 0 -10 10 -15 30 -15 17 0 33
-6 36 -13 2 -7 3 -87 2 -177 l-3 -165 -106 125 c-58 69 -129 155 -158 193
l-53 67 -84 0 c-66 0 -84 -3 -84 -14z"/>
<path d="M3889 7275 c-3 -3 -34 -11 -70 -18 -41 -8 -65 -18 -67 -28 -2 -10 7
-14 30 -14 42 0 48 -13 87 -183 35 -151 38 -198 15 -231 -37 -52 -153 -77
-214 -46 -35 18 -50 57 -90 232 -36 159 -37 167 -5 181 25 11 37 46 13 37 -7
-3 -60 -16 -118 -29 -72 -16 -105 -28 -105 -37 0 -9 11 -14 30 -14 28 0 31 -4
52 -70 12 -38 34 -124 49 -189 33 -145 57 -178 135 -195 113 -24 263 32 300
112 25 57 25 66 -17 265 -37 178 -37 202 3 202 8 0 13 6 11 13 -5 13 -30 21
-39 12z"/>
<path d="M4790 7256 c0 -9 6 -16 13 -16 7 0 21 -6 31 -13 17 -12 17 -20 -4
-162 -20 -147 -37 -243 -46 -277 -4 -12 -15 -18 -35 -18 -19 0 -29 -5 -29 -15
0 -10 10 -15 28 -15 15 0 65 -7 111 -15 67 -12 87 -12 93 -2 5 8 -2 15 -22 21
-25 7 -30 14 -30 41 0 59 53 396 65 416 4 5 19 9 36 9 17 0 29 5 29 13 0 9
-28 17 -89 25 -49 7 -103 15 -120 18 -24 5 -31 3 -31 -10z"/>
<path d="M5150 7196 c0 -9 7 -19 16 -23 26 -10 32 -41 50 -294 9 -134 20 -247
23 -250 3 -4 15 -10 27 -13 17 -5 48 25 189 189 161 186 186 209 216 203 8 -2
14 3 14 11 0 13 -120 61 -152 61 -23 0 -14 -28 12 -34 14 -4 25 -12 25 -19 0
-19 -226 -295 -234 -286 -5 4 -26 287 -26 340 0 27 3 29 35 29 67 0 38 25 -67
59 -57 18 -109 35 -115 38 -7 2 -13 -3 -13 -11z"/>
<path d="M5796 6961 c-4 -5 6 -18 21 -29 l26 -19 -37 -69 c-69 -126 -161 -276
-183 -300 -13 -14 -28 -21 -37 -18 -10 4 -16 1 -16 -7 0 -8 30 -31 68 -52 37
-20 109 -62 161 -92 l94 -55 35 51 c37 56 32 87 -8 44 -13 -14 -32 -25 -41
-25 -20 0 -145 66 -155 81 -4 7 72 155 92 178 6 6 93 -42 110 -61 13 -13 13
-21 4 -38 -8 -16 -9 -25 -1 -33 6 -6 12 -9 14 -6 16 19 77 129 77 138 0 18
-20 13 -39 -11 l-18 -21 -56 32 c-31 18 -59 35 -61 39 -9 14 80 147 100 149
10 2 44 -14 74 -35 55 -38 63 -53 45 -94 -5 -13 -3 -18 8 -18 18 0 80 81 70
91 -13 12 -326 189 -334 189 -4 0 -10 -4 -13 -9z"/>
<path d="M2733 6841 c-74 -27 -148 -69 -198 -113 -189 -166 -76 -478 173 -479
99 -1 219 63 304 162 l45 52 -38 60 c-30 46 -36 63 -29 78 20 37 -10 28 -97
-27 -105 -68 -96 -60 -89 -73 5 -7 19 -4 42 7 l36 17 23 -29 c51 -64 52 -73
15 -111 -100 -103 -253 -78 -340 57 -85 131 -53 254 84 319 80 38 107 37 145
-3 25 -27 31 -29 36 -16 6 16 -39 118 -53 118 -4 -1 -30 -9 -59 -19z"/>
<path d="M6284 6675 c-4 -8 1 -24 10 -34 9 -10 16 -20 16 -24 0 -16 -250 -315
-276 -330 -7 -4 -23 -3 -35 4 -13 7 -25 7 -31 1 -13 -13 159 -155 179 -147 14
5 13 9 -7 30 l-23 24 43 58 c72 95 233 283 243 283 5 0 24 -15 43 -34 38 -38
43 -70 19 -115 -28 -55 -122 -76 -156 -35 -21 25 -29 15 -29 -38 0 -29 -7 -93
-15 -143 -8 -49 -15 -100 -15 -112 0 -29 96 -111 112 -95 8 8 8 15 -1 26 -11
13 -11 40 -1 138 15 164 14 160 56 152 87 -16 164 36 164 111 0 51 -14 71 -97
136 -38 29 -96 77 -130 107 -51 43 -64 51 -69 37z"/>
<path d="M4227 6569 c-581 -37 -1163 -301 -1588 -721 -344 -340 -581 -765
-684 -1223 -14 -66 -37 -167 -50 -225 -43 -194 -41 -306 9 -464 15 -47 20 -75
13 -72 -71 31 -134 56 -144 56 -19 0 -17 -131 2 -205 9 -33 29 -82 45 -108 17
-27 30 -50 30 -51 0 -2 -26 -6 -57 -9 -69 -8 -123 -22 -146 -40 -17 -11 -15
-17 24 -72 84 -123 234 -248 330 -276 30 -10 41 -20 53 -51 9 -21 16 -41 16
-43 0 -3 -39 -5 -87 -5 -86 0 -189 -17 -248 -40 l-30 -12 95 -91 c81 -78 112
-101 208 -149 87 -44 108 -58 92 -63 -11 -3 -20 -10 -20 -15 0 -16 205 -223
269 -272 57 -43 117 -76 191 -105 23 -9 22 -11 -27 -27 -28 -9 -80 -35 -115
-58 l-62 -40 39 -34 c49 -42 188 -115 271 -143 89 -30 225 -45 307 -34 37 5
67 8 67 6 0 -2 -18 -27 -41 -55 -58 -73 -75 -108 -57 -119 7 -5 18 -9 23 -9 6
0 50 -5 100 -10 97 -12 238 0 323 25 25 8 48 13 49 11 2 -2 -1 -16 -7 -31
l-10 -28 77 5 c93 6 183 35 277 89 l68 39 50 -37 51 -37 -154 -33 c-141 -30
-251 -59 -316 -84 -24 -9 -22 -12 76 -83 l101 -73 84 43 83 44 99 -19 c351
-68 621 -68 989 -2 l109 20 82 -43 81 -43 94 69 c52 37 95 72 97 77 4 11 -185
64 -350 98 -71 14 -128 29 -128 32 0 3 21 20 46 37 l46 32 82 -43 c103 -55
202 -85 277 -85 61 0 67 6 49 41 -6 10 -9 19 -8 19 2 0 28 -7 58 -15 98 -27
228 -37 327 -25 148 16 145 12 79 108 -31 46 -56 84 -56 86 0 1 28 -1 63 -6
122 -18 300 18 437 87 61 31 170 104 170 115 0 20 -72 67 -153 99 l-57 23 87
44 c104 51 207 135 316 258 78 89 78 90 55 102 l-23 12 30 11 c105 39 184 90
278 180 54 52 94 98 90 101 -26 23 -120 42 -229 47 l-121 6 15 39 c13 34 25
43 88 73 41 18 101 54 134 80 72 56 200 211 200 244 0 14 -88 41 -156 48 l-62
6 29 45 c38 60 60 139 67 240 6 97 6 97 -100 52 -60 -26 -70 -27 -65 -13 49
151 50 157 51 303 1 114 -3 158 -18 205 -10 33 -29 112 -42 175 -103 494 -330
917 -684 1270 -74 75 -173 165 -220 201 -358 278 -754 450 -1190 518 -68 11
-346 32 -390 29 -14 0 -83 -5 -153 -9z m523 -153 c782 -130 1431 -602 1779
-1294 103 -204 194 -485 216 -666 7 -54 6 -57 -27 -94 -18 -20 -50 -65 -71
-99 -74 -122 -99 -231 -107 -471 0 -2 -15 8 -32 21 -62 46 -124 62 -238 62
-81 0 -122 -6 -182 -24 -43 -13 -78 -28 -78 -33 0 -10 101 -108 112 -108 4 0
8 -21 8 -47 0 -61 34 -201 61 -256 31 -60 83 -122 127 -148 20 -12 39 -24 41
-26 2 -1 -14 -22 -36 -46 -23 -24 -44 -54 -47 -65 -7 -20 -9 -20 -51 13 -66
50 -145 76 -252 82 l-93 6 0 -30 c0 -46 29 -134 62 -185 35 -56 131 -147 188
-179 37 -21 40 -25 34 -56 -3 -18 -7 -57 -8 -87 -1 -53 -3 -56 -46 -87 -25
-18 -70 -58 -101 -89 l-56 -57 0 96 c0 105 -21 204 -54 258 l-21 33 -45 -32
c-57 -41 -135 -134 -177 -212 -32 -59 -33 -60 -92 -72 -128 -26 -246 -88 -345
-181 -52 -48 -55 -48 -40 5 12 40 8 40 -95 6 -237 -77 -395 -230 -434 -419
-13 -64 -27 -67 -47 -10 -16 48 -57 93 -100 111 -18 8 -65 14 -104 14 -109 0
-168 -39 -198 -132 -18 -53 -37 -48 -45 11 -8 62 -63 171 -116 233 -73 84
-230 173 -364 207 -27 6 -50 10 -53 7 -2 -2 0 -20 5 -39 l10 -35 -72 60 c-86
73 -226 143 -320 160 -65 12 -70 15 -83 47 -37 87 -189 261 -228 261 -41 0
-90 -184 -84 -308 2 -34 2 -62 0 -62 -2 0 -37 32 -78 70 -41 39 -84 76 -97 81
-21 10 -24 20 -29 102 -6 78 -4 93 10 102 156 97 247 218 268 358 l7 47 -59 0
c-123 0 -231 -33 -296 -90 l-36 -31 -16 30 c-8 17 -30 47 -48 68 -24 28 -29
37 -17 41 25 9 111 95 136 137 37 64 64 152 75 245 l10 84 54 49 c30 27 55 55
55 62 0 8 -21 21 -50 29 -187 56 -341 44 -450 -34 l-27 -19 -6 117 c-3 64 -12
144 -21 177 -24 89 -89 213 -140 269 l-46 49 15 86 c127 723 613 1367 1285
1701 262 131 500 201 815 240 105 13 474 4 585 -14z m-2697 -2116 c61 -68 109
-157 132 -245 17 -66 21 -232 6 -280 -10 -36 -11 -35 -46 100 -45 171 -96 316
-117 337 -18 18 -22 19 -35 5 -14 -13 -10 -32 35 -169 28 -84 58 -182 67 -218
9 -36 19 -74 22 -85 4 -15 -6 -9 -35 19 -110 105 -165 300 -142 503 6 53 13
99 16 104 9 15 39 -7 97 -71z m4801 58 c4 -13 10 -75 13 -138 6 -132 -10 -233
-52 -321 -29 -63 -117 -178 -122 -162 -6 16 31 153 82 308 49 147 53 170 30
179 -35 13 -63 -51 -133 -307 -25 -92 -50 -163 -54 -159 -5 5 -11 51 -14 103
-11 178 39 320 159 445 38 41 73 74 77 74 4 0 11 -10 14 -22z m-4265 -542 c-2
-2 -47 -20 -99 -41 -52 -20 -128 -54 -167 -75 -40 -22 -73 -37 -73 -33 0 18
45 74 79 97 54 38 113 55 195 55 38 1 67 -1 65 -3z m3841 -26 c53 -26 96 -65
116 -102 8 -16 12 -28 10 -28 -3 0 -31 16 -63 35 -32 19 -104 52 -161 73 -56
21 -106 42 -110 47 -4 4 31 5 78 3 61 -4 99 -12 130 -28z m-4464 -21 c49 -34
94 -83 129 -144 31 -52 68 -145 61 -152 -13 -13 -86 45 -128 101 -55 75 -138
209 -138 224 0 15 26 5 76 -29z m4954 33 c0 -12 -104 -177 -151 -239 -22 -29
-57 -62 -79 -73 -39 -20 -40 -20 -40 -1 0 33 78 175 121 220 40 41 123 101
141 101 4 0 8 -4 8 -8z m-4290 -50 c0 -27 -229 -127 -274 -120 -26 5 72 57
184 99 83 31 90 33 90 21z m3637 -23 c92 -33 209 -93 191 -97 -42 -9 -213 60
-268 107 l-25 22 25 -6 c14 -4 49 -15 77 -26z m665 -72 c-30 -60 -86 -126 -98
-115 -3 3 13 30 35 59 23 30 51 73 63 97 35 65 34 29 0 -41z m-4966 -116 c-19
-8 -98 108 -112 164 -5 20 14 0 57 -65 36 -52 61 -97 55 -99z m644 82 c0 -51
-22 -127 -53 -188 -23 -47 -105 -135 -125 -135 -5 0 6 41 25 92 19 50 42 120
50 155 14 55 22 68 52 88 48 32 51 31 51 -12z m3631 15 c24 -14 42 -33 45 -48
11 -46 52 -174 73 -229 12 -29 20 -55 18 -57 -2 -2 -22 9 -45 26 -67 48 -120
157 -138 283 -3 26 -3 47 0 47 4 0 25 -10 47 -22z m-3796 -80 c-13 -59 -57
-193 -70 -211 -11 -16 -14 -13 -20 31 -7 54 2 156 16 184 8 15 27 23 67 27 10
1 12 -7 7 -31z m3957 22 c33 -10 37 -15 43 -53 3 -23 5 -78 3 -122 l-3 -80
-18 33 c-14 26 -77 212 -77 228 0 6 12 5 52 -6z m-4104 -135 l3 -110 -31 30
c-20 20 -35 50 -45 90 -9 33 -18 68 -21 77 -4 13 3 18 28 21 65 8 63 12 66
-108z m4301 99 c11 -10 -34 -143 -59 -174 l-29 -35 -1 113 0 112 43 -6 c23 -4
44 -8 46 -10z m-4597 -72 c36 -11 89 -34 117 -52 48 -30 131 -113 131 -131 0
-4 -47 15 -104 42 -57 27 -162 72 -233 98 -114 44 -130 48 -149 36 -21 -13
-34 -11 -34 6 0 23 189 23 272 1z m5050 9 c21 -4 25 -10 18 -20 -7 -12 -11
-12 -24 -2 -10 9 -28 11 -48 7 -46 -9 -301 -112 -375 -151 -35 -18 -63 -28
-63 -23 0 19 101 116 148 141 27 15 73 33 103 41 55 15 191 19 241 7z m-5175
-102 c104 -37 347 -151 358 -169 6 -10 -12 -12 -86 -8 -79 3 -105 9 -159 34
-67 32 -153 98 -190 147 -12 15 -19 27 -17 27 3 0 45 -14 94 -31z m5143 22 c0
-13 -101 -105 -149 -136 -69 -43 -145 -65 -228 -65 -40 0 -73 4 -73 8 0 11
206 112 315 155 135 52 135 52 135 38z m-4570 -273 c67 -67 120 -222 136 -398
6 -60 5 -72 -7 -69 -21 7 -107 186 -123 259 -41 179 -52 240 -46 240 4 0 22
-15 40 -32z m3945 5 c-4 -16 -15 -71 -25 -123 -25 -126 -32 -149 -81 -252 -59
-123 -74 -125 -65 -5 10 154 58 293 127 372 38 42 54 45 44 8z m-4129 -63 c0
-44 -4 -80 -9 -80 -4 0 -26 12 -48 27 -36 24 -79 85 -79 112 0 6 28 12 63 14
34 2 65 4 68 5 4 1 6 -34 5 -78z m494 77 c0 -2 -36 -34 -81 -72 -63 -52 -83
-64 -90 -54 -5 8 -9 17 -9 21 0 15 67 72 105 89 36 17 75 25 75 16z m3360 -18
c73 -33 123 -94 93 -112 -6 -4 -138 95 -170 126 -14 14 34 6 77 -14z m558 6
c2 -1 -7 -22 -18 -46 -14 -29 -38 -55 -71 -77 l-49 -32 0 83 0 83 68 -4 c37
-2 68 -6 70 -7z m-4315 -65 c9 -30 20 -82 26 -115 8 -50 45 -166 76 -238 7
-16 4 -17 -21 -11 -41 9 -60 36 -88 122 -29 93 -41 192 -31 262 8 60 15 56 38
-20z m4117 -33 c0 -102 -17 -187 -53 -270 -21 -46 -29 -55 -56 -59 -17 -2 -31
-2 -31 1 0 4 13 40 29 81 16 41 34 102 40 135 23 111 53 215 62 209 5 -3 9
-47 9 -97z m-3660 18 c-22 -46 -111 -135 -160 -160 -28 -14 -29 -14 -35 16 -6
24 -2 36 17 56 37 40 193 153 196 142 2 -5 -6 -29 -18 -54z m3250 -10 c92 -71
110 -91 110 -124 0 -16 -4 -32 -9 -35 -13 -8 -121 74 -154 117 -25 33 -57 96
-57 113 0 8 41 -18 110 -71z m-3905 -77 c28 -14 62 -39 76 -55 29 -31 73 -112
65 -120 -2 -3 -28 14 -57 37 -65 51 -185 113 -265 135 -97 28 -90 37 26 33 89
-3 113 -8 155 -30z m4732 26 c-3 -3 -45 -19 -94 -36 -98 -33 -185 -78 -253
-132 -51 -40 -60 -35 -31 21 30 58 93 113 153 134 50 17 241 28 225 13z
m-5024 -24 c-6 -22 -7 -21 125 -71 82 -30 232 -121 232 -140 0 -26 -151 36
-253 105 -112 76 -142 101 -133 114 12 20 35 14 29 -8z m5085 12 c9 -7 8 -13
-8 -27 -20 -18 -20 -18 -20 8 0 28 6 32 28 19z m-38 -50 c0 -13 -152 -110
-220 -140 -121 -54 -158 -50 -77 9 52 38 121 74 212 110 77 31 85 33 85 21z
m-3921 -234 c55 -56 114 -141 146 -214 31 -69 65 -195 65 -238 l0 -30 -28 27
c-41 39 -98 151 -157 310 -42 112 -57 143 -73 145 -14 2 -18 9 -15 23 7 27 14
24 62 -23z m2869 21 c1 -8 -7 -19 -19 -24 -16 -7 -32 -40 -61 -120 -67 -190
-170 -376 -194 -352 -11 11 20 145 55 231 36 91 81 162 146 234 46 51 67 60
73 31z m-3404 -79 c113 -29 190 -73 280 -162 43 -43 76 -81 73 -85 -4 -3 -12
-1 -19 4 -65 52 -333 185 -463 230 l-70 24 -14 -21 c-13 -19 -15 -20 -32 -4
-11 10 -19 21 -19 26 0 16 185 8 264 -12z m4134 0 c-16 -25 -38 -34 -38 -16 0
25 -23 24 -110 -6 -109 -38 -251 -105 -359 -170 -47 -28 -90 -53 -94 -56 -17
-9 15 40 51 80 106 117 277 186 465 187 94 1 97 0 85 -19z m-3619 -137 c62
-158 134 -283 197 -340 56 -52 39 -55 -42 -8 -110 65 -180 166 -209 300 -15
73 -20 167 -8 178 9 9 4 18 62 -130z m2896 -75 c-22 -85 -65 -157 -129 -215
-58 -54 -141 -102 -153 -89 -4 4 1 12 12 18 61 34 141 163 214 345 70 173 66
168 69 81 2 -48 -3 -101 -13 -140z m-3509 126 c109 -44 138 -59 287 -142 64
-36 117 -69 117 -74 0 -5 -19 -6 -42 -2 -153 21 -287 81 -391 175 -56 51 -79
79 -64 79 2 0 43 -16 93 -36z m4154 9 c-47 -61 -156 -139 -246 -176 -49 -21
-199 -57 -236 -57 -60 0 426 254 495 259 5 1 -1 -11 -13 -26z m-3237 -109 c9
-3 12 -14 9 -30 -4 -21 16 -45 134 -162 144 -143 240 -249 232 -257 -2 -3 -29
7 -59 22 -83 40 -210 176 -286 305 -74 123 -78 141 -30 122z m2277 -1 c0 -10
-90 -164 -119 -203 -87 -119 -207 -224 -280 -245 l-24 -7 24 33 c13 19 99 110
192 204 136 138 166 174 162 192 -5 21 5 30 33 32 6 1 12 -2 12 -6z m-2044
-125 c45 -42 144 -180 144 -201 0 -7 -65 53 -145 133 -80 80 -145 148 -145
153 0 15 102 -45 146 -85z m1783 -55 c-79 -82 -145 -145 -147 -141 -7 15 55
105 116 170 36 38 85 78 115 92 28 15 53 26 56 26 2 0 -61 -66 -140 -147z
m-1512 -3 c117 -51 236 -161 283 -263 32 -68 48 -137 32 -137 -14 0 -146 141
-240 258 -85 104 -122 128 -122 79 0 -20 101 -152 228 -300 26 -30 5 -30 -49
0 -87 47 -167 169 -203 309 -25 96 -26 95 71 54z m1317 3 c-30 -131 -81 -239
-146 -309 -37 -40 -123 -92 -134 -82 -2 3 48 68 112 144 126 151 144 178 127
195 -20 20 -47 -1 -113 -83 -104 -130 -230 -268 -245 -268 -11 0 -11 9 -1 53
31 134 134 253 286 330 108 56 123 58 114 20z m-2233 -18 c63 -13 78 -21 129
-68 31 -28 56 -53 55 -55 -1 -1 -47 8 -101 21 -54 14 -157 35 -227 48 -110 19
-130 21 -137 8 -17 -26 15 -40 171 -74 170 -38 298 -71 306 -78 10 -10 -101
-27 -176 -27 -126 0 -282 48 -386 120 -25 17 -43 36 -39 41 9 15 99 58 141 68
60 14 186 12 264 -4z m3340 -1 c64 -19 129 -53 129 -68 0 -14 -99 -75 -167
-104 -71 -30 -181 -52 -263 -52 -77 0 -176 18 -163 30 9 8 325 85 393 96 25 4
53 11 63 16 20 10 23 36 3 44 -20 8 -322 -49 -441 -82 -12 -4 1 15 35 47 45
45 65 56 120 71 84 22 220 23 291 2z m-2877 -62 c26 -35 44 -67 41 -72 -10
-16 -55 -12 -55 5 0 8 -9 20 -20 27 -16 10 -20 24 -20 62 0 27 2 47 4 45 2 -2
25 -32 50 -67z m2196 24 c0 -57 -45 -112 -84 -102 l-25 6 47 70 c26 38 50 69
55 70 4 0 7 -20 7 -44z m-2100 -177 c27 -6 50 -15 50 -20 0 -5 -6 -9 -13 -9
-35 0 -394 -123 -409 -141 -17 -20 -38 -25 -38 -9 0 18 80 98 131 131 88 56
173 71 279 48z m2182 -27 c36 -18 87 -55 121 -88 59 -60 67 -74 42 -74 -8 0
-15 5 -15 11 0 15 -66 41 -257 100 -95 29 -173 56 -173 60 0 15 78 28 147 25
57 -2 86 -10 135 -34z m-2022 -52 c0 -11 -96 -55 -176 -80 -62 -19 -256 -41
-244 -27 6 7 211 73 315 102 76 21 105 22 105 5z m1900 -58 l145 -47 -57 -3
c-70 -4 -204 27 -293 67 -63 29 -79 45 -52 54 14 5 62 -8 257 -71z m-1793 22
c13 -4 20 -10 17 -15 -10 -16 -99 -57 -140 -64 l-39 -7 60 46 c63 48 67 49
102 40z m1510 -36 c30 -23 50 -44 43 -46 -15 -5 -94 24 -139 51 -30 18 -32 21
-15 28 36 14 55 9 111 -33z m-529 -147 c51 -12 107 -27 125 -34 l32 -14 -65
-11 c-189 -34 -447 -38 -655 -12 -158 20 -166 28 -57 55 155 38 216 44 372 41
114 -2 180 -9 248 -25z"/>
<path d="M4348 6213 l-47 -48 -7 -95 -6 -96 -72 -16 c-298 -68 -508 -243 -572
-478 -31 -113 -23 -290 21 -460 5 -23 -1 -29 -87 -78 -327 -185 -579 -447
-678 -704 -48 -124 -61 -205 -60 -372 1 -198 22 -304 91 -445 43 -89 63 -117
133 -186 150 -149 355 -227 596 -227 243 1 425 91 496 245 26 56 29 72 29 172
0 61 -3 118 -7 128 -7 15 -23 17 -147 17 l-139 0 25 -60 c28 -71 32 -144 9
-189 -52 -99 -238 -141 -356 -81 -125 64 -189 182 -211 391 -14 130 -3 243 41
419 81 332 225 596 445 815 l120 120 -32 48 c-46 69 -74 152 -80 239 -10 143
62 306 185 419 54 49 163 110 225 125 l28 6 -6 -123 c-3 -68 -10 -297 -16
-509 l-10 -385 25 -20 c14 -11 45 -31 69 -44 l44 -24 62 38 c35 20 65 44 68
52 3 9 1 192 -5 407 -7 215 -13 438 -15 496 l-2 105 25 -3 c14 -1 59 -19 100
-39 185 -90 323 -316 307 -503 -7 -81 -38 -171 -80 -235 l-32 -50 115 -115
c229 -227 376 -503 459 -860 62 -268 42 -510 -55 -658 -65 -98 -172 -150 -287
-138 -187 19 -261 151 -177 316 l20 40 -140 0 c-125 0 -141 -2 -148 -17 -4
-10 -7 -70 -7 -133 0 -105 2 -120 28 -171 125 -255 572 -321 927 -138 192 100
328 295 374 539 22 115 23 331 1 434 -49 236 -197 460 -430 655 -100 83 -239
177 -329 223 -49 25 -57 33 -53 51 41 174 50 330 27 442 -28 142 -127 281
-259 369 -79 53 -239 119 -327 136 l-61 12 -6 96 -7 97 -48 47 -47 48 -47 -47z"/>
<path d="M3852 4681 c-35 -10 -80 -26 -101 -36 l-38 -17 -130 -439 c-71 -241
-129 -439 -127 -439 1 0 23 9 49 20 79 34 205 62 305 67 163 9 314 -29 462
-117 57 -34 75 -40 124 -40 46 0 66 6 103 30 124 79 295 130 439 130 89 0 252
-32 334 -65 l60 -24 -6 27 c-4 15 -61 212 -128 439 l-121 412 -52 21 c-205 83
-420 61 -589 -61 l-44 -31 -39 30 c-122 98 -340 138 -501 93z m325 -57 c31 -8
93 -32 138 -53 l82 -38 34 18 c186 100 427 124 561 55 l43 -21 41 -155 c97
-362 145 -552 142 -556 -3 -2 -38 3 -79 12 -203 44 -467 0 -679 -112 l-64 -34
-76 39 c-211 109 -468 150 -669 107 -41 -9 -77 -14 -79 -11 -2 2 11 64 30 137
20 73 62 233 94 355 l58 222 47 21 c97 41 249 47 376 14z"/>
<path d="M4040 4472 c-45 -22 -76 -70 -91 -140 -23 -113 15 -257 80 -295 37
-22 100 -22 146 0 35 16 35 17 35 79 0 35 5 66 10 69 25 15 5 25 -50 25 -63 0
-78 -13 -34 -30 23 -9 25 -14 22 -57 -3 -41 -7 -50 -32 -62 -25 -12 -31 -11
-55 6 -38 28 -65 89 -69 162 -6 81 12 162 43 195 45 48 135 26 135 -34 0 -16
5 -32 10 -35 6 -4 10 10 10 34 0 21 3 46 6 54 3 10 -8 19 -36 31 -52 21 -86
20 -130 -2z"/>
<path d="M4600 4475 c0 -8 7 -15 17 -15 14 0 15 -13 9 -127 -11 -211 -17 -263
-32 -263 -8 0 -14 -7 -14 -15 0 -9 9 -15 23 -15 12 0 39 -3 60 -6 30 -5 37 -4
37 10 0 9 -7 16 -15 16 -12 0 -15 17 -14 98 1 131 12 279 22 288 14 14 55 -18
61 -48 12 -58 -21 -127 -56 -120 -5 1 -8 -5 -8 -14 0 -25 70 -11 91 18 45 59
35 183 -15 193 -12 2 -54 6 -93 9 -61 5 -73 4 -73 -9z"/>
<path d="M4341 4303 c-51 -214 -60 -243 -72 -243 -5 0 -9 -7 -9 -15 0 -11 11
-15 40 -15 41 0 57 21 25 34 -11 4 -14 14 -10 33 4 16 8 38 11 51 4 19 11 22
54 22 52 0 53 0 65 -71 5 -28 3 -38 -9 -42 -35 -14 -13 -27 44 -27 61 0 75 11
45 34 -7 6 -32 85 -55 176 -60 241 -60 240 -74 240 -8 0 -27 -61 -55 -177z
m63 -25 c9 -37 16 -70 16 -73 0 -3 -19 -5 -41 -5 -38 0 -41 2 -35 23 3 12 11
48 18 79 7 32 15 55 19 50 3 -4 14 -37 23 -74z"/>
<path d="M4850 4462 c0 -6 7 -15 16 -20 14 -8 14 -18 5 -88 -31 -215 -45 -290
-57 -305 -21 -24 -18 -26 39 -32 28 -4 71 -9 93 -13 46 -7 46 -7 60 70 8 47
-10 42 -20 -5 -6 -31 -7 -31 -52 -26 -25 2 -47 7 -49 9 -9 9 19 170 30 174 6
3 24 0 38 -5 20 -8 27 -18 28 -38 l1 -28 7 25 c14 45 21 120 12 120 -6 0 -11
-10 -13 -22 -3 -20 -8 -23 -38 -20 -19 2 -36 5 -37 6 -2 1 3 36 10 77 13 81
25 91 80 70 23 -9 26 -15 21 -36 -3 -14 -2 -25 4 -25 10 0 26 76 17 89 -2 5
-30 11 -62 15 -32 4 -75 9 -95 13 -24 3 -38 2 -38 -5z"/>
<path d="M3785 4408 c-3 -18 -18 -114 -34 -213 -16 -100 -33 -181 -40 -183 -6
-2 -11 -10 -11 -18 0 -10 12 -14 38 -14 48 0 59 10 32 30 -17 13 -19 22 -14
62 6 44 9 48 39 54 55 10 68 3 84 -49 14 -44 13 -48 -4 -61 -25 -18 -10 -23
53 -18 34 2 52 8 52 17 0 7 -6 15 -14 18 -8 3 -44 96 -81 206 -67 203 -88 238
-100 169z m39 -166 c13 -39 22 -73 18 -76 -10 -10 -72 -6 -72 5 0 22 23 149
27 146 1 -2 14 -36 27 -75z"/>
<path d="M4250 3328 l0 -309 38 -16 c52 -23 186 -23 230 0 l32 18 0 308 0 309
-57 -24 c-75 -31 -136 -31 -196 0 l-47 23 0 -309z"/>
<path d="M3805 2816 c-49 -17 -92 -32 -93 -33 -2 -1 -1 -11 3 -22 6 -20 6 -20
51 0 25 10 50 19 55 19 11 0 12 -330 1 -347 -4 -6 -24 -14 -45 -18 -20 -4 -37
-12 -37 -19 0 -8 38 -10 130 -8 73 2 130 7 130 13 0 5 -11 9 -24 9 -14 0 -32
7 -41 17 -15 14 -16 41 -13 220 3 176 1 203 -12 202 -8 -1 -55 -16 -105 -33z"/>
<path d="M4182 2840 c-78 -18 -124 -111 -102 -205 13 -59 52 -88 107 -82 27 3
54 14 70 28 l26 24 -5 -41 c-12 -92 -63 -151 -139 -161 -32 -5 -37 -8 -28 -20
16 -18 70 -8 133 26 34 18 60 43 85 80 33 50 36 59 39 150 3 80 0 102 -16 131
-34 61 -97 87 -170 70z m72 -45 c17 -17 36 -77 36 -113 0 -26 -41 -72 -65 -72
-23 0 -65 45 -66 72 -4 88 14 128 57 128 12 0 29 -7 38 -15z"/>
<path d="M4612 2843 c-35 -7 -198 -296 -185 -329 4 -10 27 -14 90 -14 l84 0
-6 -37 c-6 -42 -18 -53 -58 -53 -16 0 -27 -5 -25 -11 2 -7 45 -10 118 -10 73
0 116 3 118 10 2 6 -7 11 -20 11 -33 0 -48 18 -48 57 0 30 3 33 30 33 27 0 30
3 30 30 0 27 -3 30 -30 30 l-30 0 0 145 c0 161 4 152 -68 138z m-12 -173 l0
-110 -65 0 -65 0 26 53 c32 63 94 167 100 167 2 0 4 -49 4 -110z"/>
<path d="M4929 2841 c-49 -16 -69 -32 -91 -74 -20 -37 -22 -57 -23 -167 0
-112 2 -129 22 -161 29 -45 62 -63 121 -63 56 0 93 22 124 73 21 33 23 48 23
171 0 146 -7 172 -58 204 -29 19 -85 27 -118 17z m65 -50 c24 -26 39 -138 34
-248 -3 -79 -7 -97 -26 -115 -18 -18 -26 -20 -49 -12 -15 5 -34 22 -41 36 -16
34 -27 208 -18 272 12 76 62 109 100 67z"/>
<path d="M2147 6423 c-40 -47 -53 -69 -45 -74 8 -5 22 0 35 12 14 14 26 18 36
12 28 -15 247 -206 247 -215 0 -9 -179 -9 -365 1 l-130 7 -52 -55 c-29 -31
-52 -62 -53 -68 0 -18 25 -16 40 2 7 8 18 15 25 15 15 0 294 -237 324 -276 19
-24 19 -27 4 -50 -10 -17 -13 -28 -6 -35 10 -10 123 109 123 130 0 16 -26 13
-40 -4 -7 -8 -17 -15 -23 -15 -11 0 -143 109 -228 189 l-54 50 270 -5 270 -6
28 24 28 23 -117 100 c-65 55 -152 132 -193 171 -74 69 -75 72 -58 91 9 11 17
25 17 31 0 27 -29 8 -83 -55z"/>
<path d="M6712 6177 c-18 -5 -48 -27 -67 -49 -46 -51 -46 -92 0 -194 43 -94
44 -115 5 -147 -41 -35 -64 -41 -97 -23 -84 43 -121 151 -68 198 25 21 34 48
16 48 -19 0 -110 -66 -110 -80 -1 -29 48 -119 89 -164 94 -102 226 -101 298 4
31 46 28 74 -18 169 -47 96 -49 119 -15 155 43 47 114 26 154 -44 28 -50 26
-81 -4 -110 -40 -37 -14 -45 44 -13 45 25 51 31 46 53 -18 73 -110 179 -173
198 -45 14 -55 14 -100 -1z"/>
<path d="M7085 5830 c-3 -5 -1 -19 5 -30 6 -11 8 -25 5 -30 -7 -12 -298 -192
-348 -216 -38 -18 -39 -18 -55 4 -10 12 -22 18 -29 14 -8 -5 8 -39 51 -109 44
-72 66 -99 75 -93 10 6 11 12 1 30 -6 12 -9 28 -6 35 5 14 338 225 366 232 9
2 24 -5 34 -16 10 -11 24 -17 31 -15 9 4 -7 36 -49 104 -61 99 -69 109 -81 90z"/>
<path d="M1692 5809 c-51 -26 -104 -85 -142 -159 -78 -154 -29 -294 132 -374
87 -44 148 -48 223 -12 116 54 201 216 175 332 -39 176 -240 286 -388 213z
m165 -109 c74 -37 159 -124 169 -175 11 -61 -29 -140 -86 -170 -78 -40 -224 8
-312 102 -56 61 -68 104 -44 167 44 114 139 141 273 76z"/>
<path d="M7223 5524 c-37 -16 -51 -28 -47 -38 4 -11 12 -13 31 -5 13 5 30 9
37 9 16 0 69 -107 63 -124 -3 -6 -33 -24 -68 -38 -35 -15 -122 -51 -193 -82
-71 -30 -135 -52 -142 -49 -7 3 -16 13 -19 24 -6 18 -35 27 -35 11 0 -4 18
-48 40 -97 22 -50 40 -95 40 -102 0 -15 17 -26 30 -18 6 3 6 15 0 29 -6 16 -5
29 3 39 16 20 389 180 397 170 4 -5 18 -34 31 -66 20 -50 21 -60 9 -67 -72
-41 -63 -68 13 -38 28 12 54 23 56 24 2 2 -34 89 -79 195 -45 105 -86 205 -92
220 -12 34 -9 34 -75 3z"/>
<path d="M1346 5186 c-21 -61 -38 -115 -38 -121 1 -21 22 -15 32 9 5 15 16 29
23 32 14 5 405 -128 502 -171 61 -26 71 -51 35 -82 -27 -23 -25 -29 9 -41 37
-13 51 0 51 48 0 60 -28 126 -69 163 -40 36 -42 37 -286 123 -195 68 -208 76
-200 113 4 19 2 30 -7 34 -10 3 -25 -28 -52 -107z"/>
<path d="M6980 4938 c0 -7 7 -46 17 -85 17 -76 43 -101 43 -43 0 37 11 42 75
32 l50 -7 24 -94 24 -93 -24 -19 c-13 -11 -37 -27 -53 -35 -27 -15 -30 -15
-42 1 -7 10 -15 22 -17 28 -2 6 -8 8 -14 4 -11 -7 36 -220 50 -224 18 -7 24
-1 20 20 -4 20 23 44 211 183 185 136 216 162 213 183 -1 13 -9 27 -17 32 -8
4 -125 23 -260 43 -228 33 -246 38 -265 61 -23 27 -35 32 -35 13z m333 -122
c48 -7 90 -16 93 -19 8 -8 -145 -119 -156 -112 -5 3 -14 31 -21 62 -6 32 -14
63 -16 70 -6 16 -10 16 100 -1z"/>
<path d="M1256 4911 c-4 -5 -15 -52 -26 -105 -11 -52 -29 -132 -40 -177 -17
-65 -19 -84 -8 -90 8 -5 16 2 25 22 6 16 17 29 22 29 16 0 300 -66 364 -85 45
-13 60 -22 68 -43 5 -14 13 -21 18 -16 13 15 91 358 83 365 -16 15 -112 38
-118 28 -7 -12 -7 -12 34 -33 22 -11 32 -24 32 -39 0 -26 -28 -158 -34 -164
-6 -7 -195 37 -200 46 -7 10 20 109 33 125 6 7 22 11 35 9 14 -3 25 1 29 10 4
11 -13 18 -72 30 -93 21 -91 21 -91 2 0 -8 6 -15 13 -15 35 -1 40 -16 27 -85
l-13 -67 -41 5 c-22 4 -65 13 -94 22 l-53 16 7 37 c4 20 14 57 23 82 15 41 20
45 49 45 49 0 47 22 -5 39 -54 19 -60 19 -67 7z"/>
<path d="M1453 4379 c-47 -14 -78 -57 -92 -130 -18 -91 -20 -95 -42 -123 -22
-28 -64 -35 -100 -16 -76 41 -51 210 32 210 18 0 29 5 29 14 0 19 -110 32
-121 14 -33 -53 -34 -206 -1 -262 32 -54 66 -71 143 -71 92 0 113 20 145 140
13 48 31 96 40 106 39 43 112 31 140 -22 22 -44 15 -125 -15 -167 -19 -27 -29
-32 -62 -32 -26 0 -39 -4 -39 -13 0 -9 23 -17 66 -24 l67 -10 18 41 c13 29 19
65 19 123 0 96 -7 119 -55 172 -28 30 -48 42 -86 50 -27 6 -51 11 -52 10 -1 0
-16 -5 -34 -10z"/>
<path d="M7413 4345 c-45 -19 -62 -51 -80 -148 -18 -101 -41 -131 -100 -131
-27 0 -42 7 -64 32 -59 66 -27 201 51 212 53 8 47 26 -12 33 -83 10 -84 10
-96 -32 -15 -49 -15 -168 0 -212 35 -104 144 -156 242 -115 41 17 61 57 76
156 12 85 29 117 65 126 68 17 119 -37 112 -118 -5 -63 -29 -98 -67 -98 -20 0
-30 -5 -30 -15 0 -11 11 -15 38 -15 20 0 47 -3 59 -6 18 -5 23 0 32 33 19 68
13 162 -13 219 -19 41 -33 55 -68 73 -51 24 -99 26 -145 6z"/>
<path d="M1300 3703 c-8 -3 -27 -17 -42 -31 -119 -110 12 -295 159 -225 96 45
98 199 4 248 -29 15 -91 19 -121 8z"/>
<path d="M7375 3670 c-123 -81 -59 -270 88 -257 131 11 174 188 62 257 -42 26
-110 26 -150 0z"/>
<path d="M7173 3243 c-3 -10 -14 -38 -23 -63 l-17 -44 101 -109 c55 -59 102
-112 104 -117 5 -14 -25 -18 -168 -26 -74 -3 -138 -9 -141 -13 -3 -3 -16 -32
-29 -64 -24 -61 -20 -87 9 -49 l17 23 89 -35 c50 -19 121 -48 159 -65 64 -29
68 -33 62 -57 -12 -46 15 -22 39 36 25 59 22 86 -5 50 l-17 -22 -134 53 -134
53 65 7 c36 4 118 10 183 14 120 7 138 15 100 46 -31 27 -215 230 -211 235 6
5 226 -82 244 -97 8 -7 12 -20 9 -30 -3 -9 -1 -20 5 -24 5 -3 10 -5 10 -3 0 2
15 41 34 86 25 59 30 82 21 82 -8 0 -18 -8 -24 -17 -8 -16 -17 -14 -98 16 -48
19 -121 49 -161 67 -67 31 -72 35 -66 59 7 29 -13 36 -23 8z"/>
<path d="M1376 3197 c-22 -12 -53 -39 -70 -60 -26 -33 -31 -48 -34 -108 -3
-51 1 -83 13 -116 19 -50 79 -123 101 -123 20 0 18 4 -20 55 -38 49 -53 111
-41 165 16 73 141 150 220 136 103 -20 168 -187 87 -226 -37 -18 -7 -25 46
-11 l39 11 -9 57 c-16 101 -72 194 -139 229 -44 22 -146 18 -193 -9z"/>
<path d="M1727 2894 c-3 -4 -2 -14 3 -24 14 -27 -17 -49 -198 -140 -103 -51
-104 -52 -119 -31 -8 12 -19 19 -24 16 -12 -8 72 -165 89 -165 10 0 10 5 1 22
-15 28 -2 37 164 124 141 72 150 73 163 8 15 -75 -92 -119 -143 -59 -21 24
-24 25 -30 8 -3 -10 -30 -59 -60 -110 l-53 -92 22 -45 c12 -25 28 -46 35 -46
7 0 10 6 7 14 -4 11 75 177 96 199 4 5 22 1 40 -8 43 -22 108 -15 132 15 26
33 22 71 -16 142 -18 35 -46 86 -60 113 -31 57 -40 68 -49 59z"/>
<path d="M6922 2683 c-34 -59 -35 -78 -2 -48 19 17 22 16 113 -39 138 -83 159
-103 159 -150 0 -45 -43 -105 -86 -119 -32 -11 -87 15 -201 91 -57 39 -70 52
-70 74 0 14 -2 29 -5 32 -3 3 -27 -31 -54 -75 -47 -80 -54 -108 -17 -75 23 21
26 19 178 -74 109 -67 140 -73 194 -37 57 38 92 98 97 167 4 60 4 61 -35 99
-22 20 -62 50 -89 66 -27 16 -70 44 -95 62 -38 27 -45 37 -41 58 7 41 -11 28
-46 -32z"/>
<path d="M1917 2544 c-3 -4 -1 -16 5 -27 9 -18 6 -25 -22 -49 -72 -59 -237
-166 -263 -170 -29 -3 -38 12 128 -221 13 -18 15 -18 54 5 51 29 52 40 4 32
-36 -5 -40 -3 -76 46 -21 28 -36 57 -34 64 3 7 30 29 61 51 53 37 57 37 75 21
11 -10 25 -31 32 -48 11 -27 10 -32 -5 -43 -11 -8 -13 -16 -7 -19 6 -4 33 8
61 27 50 34 57 52 15 41 -20 -5 -48 20 -78 72 -4 7 18 29 53 53 l59 42 35 -48
c38 -52 45 -80 21 -89 -18 -7 -20 -24 -2 -24 6 0 27 9 45 20 l32 20 -80 110
c-45 61 -83 117 -87 125 -5 16 -16 19 -26 9z"/>
<path d="M6657 2286 c-37 -48 -53 -77 -46 -82 7 -4 16 1 21 10 5 9 13 16 18
16 9 0 150 -105 232 -173 41 -33 46 -42 37 -58 -5 -11 -7 -24 -4 -29 7 -11
115 122 115 140 0 14 -11 12 -31 -6 -15 -14 -25 -9 -115 59 -55 41 -117 91
-139 110 -35 30 -38 36 -26 51 10 11 11 20 4 27 -7 7 -29 -15 -66 -65z"/>
<path d="M6462 2067 l-133 -133 39 -32 c44 -34 59 -33 35 5 -15 23 -14 26 14
60 16 20 33 38 39 40 5 2 63 -50 128 -116 109 -109 117 -120 106 -141 -24 -45
3 -32 67 33 62 61 79 98 32 69 -27 -17 -38 -10 -162 115 l-107 109 40 39 c39
38 40 38 60 20 13 -12 24 -15 30 -9 7 7 -1 21 -23 42 l-33 32 -132 -133z"/>
<path d="M2115 2079 c-234 -89 -245 -92 -260 -79 -8 6 -19 9 -26 5 -7 -5 6
-25 37 -56 47 -47 75 -57 51 -18 -10 17 -9 22 8 35 42 31 64 29 107 -12 56
-55 61 -67 44 -108 -16 -40 -33 -53 -49 -37 -13 13 -27 14 -27 3 0 -12 110
-132 121 -132 4 0 6 12 3 28 -4 20 15 72 76 207 79 173 86 203 54 211 -5 1
-67 -20 -139 -47z m49 -41 c-3 -13 -18 -45 -32 -73 l-25 -50 -38 45 c-21 24
-35 48 -31 52 8 8 109 46 125 47 5 1 5 -9 1 -21z"/>
<path d="M2351 1945 c-26 -39 -22 -58 7 -32 25 23 31 22 75 -16 l38 -32 -97
-120 c-53 -66 -102 -123 -108 -127 -6 -5 -23 -5 -38 -2 -16 3 -28 2 -27 -3 1
-13 143 -121 152 -116 5 3 1 13 -9 24 -9 10 -14 25 -10 34 7 19 197 255 205
255 3 0 24 -15 46 -34 39 -33 39 -33 22 -59 -11 -17 -13 -28 -6 -32 6 -4 11
-5 12 -3 1 2 15 18 31 35 l29 33 -29 22 c-16 13 -80 65 -142 116 -62 50 -116
92 -120 92 -4 0 -18 -16 -31 -35z"/>
<path d="M6247 1864 c-36 -31 -64 -61 -61 -65 3 -5 14 -5 24 1 10 5 21 10 23
10 6 0 162 -181 200 -231 24 -32 25 -38 12 -49 -18 -15 -20 -30 -4 -30 17 0
139 111 133 121 -3 5 -13 3 -24 -3 -24 -15 -28 -12 -145 127 -91 107 -107 136
-85 150 12 7 13 25 2 25 -4 0 -38 -25 -75 -56z"/>
<path d="M6112 1754 c-28 -19 -52 -40 -52 -45 0 -12 7 -11 30 1 13 7 21 7 26
-2 10 -15 64 -271 59 -276 -4 -5 -222 146 -231 159 -3 6 2 19 11 29 33 37 -3
27 -78 -21 -74 -48 -93 -76 -43 -63 18 4 61 -20 190 -106 126 -84 172 -110
187 -105 15 5 19 13 15 28 -3 12 -20 102 -38 200 -27 150 -30 182 -19 199 23
37 -3 38 -57 2z"/>
<path d="M2675 1731 c-2 -5 2 -14 10 -21 8 -7 15 -18 15 -24 0 -6 -41 -74 -90
-149 -88 -136 -91 -138 -120 -132 -17 4 -30 3 -30 -2 0 -14 149 -105 160 -98
8 5 4 12 -10 22 l-21 15 27 46 c43 74 155 241 165 248 6 3 17 0 25 -7 10 -8
18 -9 25 -2 6 6 -17 27 -70 61 -44 28 -83 47 -86 43z"/>
<path d="M2840 1613 c0 -3 7 -15 16 -24 15 -17 15 -35 5 -181 -6 -90 -14 -182
-17 -205 -5 -36 -3 -42 15 -48 17 -5 51 18 173 122 84 70 161 128 173 128 37
2 27 18 -29 48 -58 31 -89 30 -48 -2 23 -17 23 -18 5 -37 -38 -43 -194 -177
-199 -171 -6 6 14 266 22 279 3 4 16 5 30 2 51 -13 21 17 -56 56 -83 42 -90
44 -90 33z"/>
<path d="M5593 1452 c-112 -56 -141 -80 -83 -68 l30 6 77 -156 76 -156 -23
-18 c-44 -33 -4 -28 75 11 80 38 93 54 45 54 -22 0 -33 16 -91 130 -88 171
-87 170 -49 190 55 28 109 -9 110 -77 0 -28 -6 -41 -27 -57 -29 -24 -30 -22
17 -46 19 -10 65 -38 102 -63 l68 -45 50 23 c54 25 60 41 17 46 -15 1 -65 26
-112 54 l-84 51 19 32 c26 41 25 88 -1 121 -34 43 -83 35 -216 -32z"/>
<path d="M3250 1401 c0 -5 9 -15 21 -22 20 -14 20 -15 -29 -144 -69 -180 -71
-185 -98 -185 -49 0 -30 -18 52 -49 87 -33 118 -34 76 -2 l-23 17 49 131 c67
177 73 188 99 188 43 0 19 20 -55 48 -83 29 -92 31 -92 18z"/>
<path d="M5282 1336 c-68 -24 -122 -47 -122 -52 1 -5 10 -8 20 -7 27 3 34 -10
78 -147 54 -165 57 -177 42 -195 -7 -9 -10 -18 -8 -21 3 -3 69 16 148 42 117
38 140 49 135 63 -4 9 -9 28 -12 44 -8 37 -28 34 -28 -5 0 -29 -4 -33 -60 -55
-32 -13 -64 -23 -70 -23 -10 0 -55 121 -55 147 0 10 64 33 93 33 9 0 19 -9 22
-20 3 -11 11 -20 17 -20 13 0 5 46 -19 97 l-17 38 -4 -28 c-2 -21 -12 -32 -35
-42 -75 -30 -72 -32 -94 45 l-21 71 23 9 c91 34 114 34 128 -5 9 -23 18 6 12
39 -9 46 -16 46 -173 -8z"/>
<path d="M3446 1313 c-4 -16 -9 -36 -12 -45 -3 -12 0 -18 9 -18 8 0 17 9 20
20 3 11 13 20 24 20 24 0 93 -19 93 -26 0 -13 -83 -290 -91 -306 -5 -10 -21
-18 -34 -18 -49 0 -23 -17 65 -41 69 -20 90 -22 90 -12 0 7 -6 13 -14 13 -26
0 -26 29 0 117 14 49 34 116 44 151 10 35 20 66 24 69 3 4 27 0 54 -8 44 -14
47 -18 46 -47 -3 -47 20 -40 33 10 6 24 11 43 10 44 -3 2 -346 104 -351 104
-2 0 -7 -12 -10 -27z"/>
<path d="M4960 1258 c-105 -30 -144 -138 -75 -207 21 -22 37 -27 107 -32 69
-5 84 -9 100 -29 40 -49 -10 -120 -85 -120 -50 0 -82 20 -91 56 -11 41 -23 15
-18 -38 4 -46 5 -48 40 -54 45 -9 139 10 172 34 14 10 36 39 48 65 22 43 23
49 10 89 -19 56 -59 78 -148 78 -71 0 -81 4 -99 37 -9 18 -9 29 3 52 17 33 34
41 82 41 46 0 74 -16 74 -40 0 -11 6 -20 14 -20 11 0 13 9 10 38 -3 20 -7 43
-10 50 -4 14 -83 15 -134 0z"/>
<path d="M3844 1061 c-83 -134 -114 -177 -131 -179 -41 -6 -24 -18 40 -29 69
-12 83 -8 50 14 -22 14 -22 16 -6 47 27 54 27 53 103 40 39 -6 73 -14 75 -16
3 -3 8 -26 11 -51 6 -43 5 -47 -14 -47 -11 0 -23 -4 -26 -9 -4 -5 27 -14 66
-21 40 -6 80 -14 90 -16 9 -3 19 0 23 6 4 7 -2 14 -14 17 -23 6 -21 1 -76 228
-46 193 -43 182 -64 188 -15 4 -39 -29 -127 -172z m106 -14 c6 -32 9 -61 7
-64 -9 -8 -107 8 -107 17 0 5 16 36 37 70 41 69 44 67 63 -23z"/>
<path d="M4269 1177 c-60 -40 -76 -105 -40 -164 15 -24 33 -35 74 -47 30 -9
61 -16 69 -16 8 0 25 -11 37 -24 18 -19 21 -31 16 -55 -9 -40 -40 -61 -91 -61
-51 0 -89 27 -97 70 -10 47 -25 36 -29 -21 -3 -47 -1 -52 24 -65 36 -19 151
-18 187 1 50 25 81 71 81 120 0 24 -3 51 -6 60 -9 22 -48 41 -117 55 -94 19
-127 75 -71 119 50 40 144 17 144 -35 0 -30 16 -31 24 -1 19 70 -2 87 -108 87
-49 0 -71 -5 -97 -23z"/>
</g>
</svg>
